<svg id="visual" viewBox="0 0 900 200" width="900" height="200" xmlns="http://www.w3.org/2000/svg" xmlns:xlink="http://www.w3.org/1999/xlink" version="1.1"><rect x="0" y="0" width="900" height="200" fill="#232d3f"></rect><path d="M0 92L18.8 93.7C37.7 95.3 75.3 98.7 112.8 98.8C150.3 99 187.7 96 225.2 97.8C262.7 99.7 300.3 106.3 337.8 105.8C375.3 105.3 412.7 97.7 450.2 97.3C487.7 97 525.3 104 562.8 100.8C600.3 97.7 637.7 84.3 675.2 80.5C712.7 76.7 750.3 82.3 787.8 85.7C825.3 89 862.7 90 881.3 90.5L900 91L900 0L881.3 0C862.7 0 825.3 0 787.8 0C750.3 0 712.7 0 675.2 0C637.7 0 600.3 0 562.8 0C525.3 0 487.7 0 450.2 0C412.7 0 375.3 0 337.8 0C300.3 0 262.7 0 225.2 0C187.7 0 150.3 0 112.8 0C75.3 0 37.7 0 18.8 0L0 0Z" fill="#fcaf3c"></path><path d="M0 68L18.8 71.5C37.7 75 75.3 82 112.8 81.5C150.3 81 187.7 73 225.2 71.2C262.7 69.3 300.3 73.7 337.8 71.5C375.3 69.3 412.7 60.7 450.2 56.2C487.7 51.7 525.3 51.3 562.8 54.5C600.3 57.7 637.7 64.3 675.2 66.5C712.7 68.7 750.3 66.3 787.8 66.7C825.3 67 862.7 70 881.3 71.5L900 73L900 0L881.3 0C862.7 0 825.3 0 787.8 0C750.3 0 712.7 0 675.2 0C637.7 0 600.3 0 562.8 0C525.3 0 487.7 0 450.2 0C412.7 0 375.3 0 337.8 0C300.3 0 262.7 0 225.2 0C187.7 0 150.3 0 112.8 0C75.3 0 37.7 0 18.8 0L0 0Z" fill="#a6742f"></path><path d="M0 47L18.8 46.8C37.7 46.7 75.3 46.3 112.8 45C150.3 43.7 187.7 41.3 225.2 42.8C262.7 44.3 300.3 49.7 337.8 52.2C375.3 54.7 412.7 54.3 450.2 53.8C487.7 53.3 525.3 52.7 562.8 52.5C600.3 52.3 637.7 52.7 675.2 51.2C712.7 49.7 750.3 46.3 787.8 46C825.3 45.7 862.7 48.3 881.3 49.7L900 51L900 0L881.3 0C862.7 0 825.3 0 787.8 0C750.3 0 712.7 0 675.2 0C637.7 0 600.3 0 562.8 0C525.3 0 487.7 0 450.2 0C412.7 0 375.3 0 337.8 0C300.3 0 262.7 0 225.2 0C187.7 0 150.3 0 112.8 0C75.3 0 37.7 0 18.8 0L0 0Z" fill="#563f21"></path><path d="M0 33L18.8 32.8C37.7 32.7 75.3 32.3 112.8 29.7C150.3 27 187.7 22 225.2 20.2C262.7 18.3 300.3 19.7 337.8 21.8C375.3 24 412.7 27 450.2 29.2C487.7 31.3 525.3 32.7 562.8 33.5C600.3 34.3 637.7 34.7 675.2 33.3C712.7 32 750.3 29 787.8 29.7C825.3 30.3 862.7 34.7 881.3 36.8L900 39L900 0L881.3 0C862.7 0 825.3 0 787.8 0C750.3 0 712.7 0 675.2 0C637.7 0 600.3 0 562.8 0C525.3 0 487.7 0 450.2 0C412.7 0 375.3 0 337.8 0C300.3 0 262.7 0 225.2 0C187.7 0 150.3 0 112.8 0C75.3 0 37.7 0 18.8 0L0 0Z" fill="#0f0f0f"></path></svg>