<svg id="visual" viewBox="0 0 960 200" width="960" height="200" xmlns="http://www.w3.org/2000/svg" xmlns:xlink="http://www.w3.org/1999/xlink" version="1.1"><rect x="0" y="0" width="960" height="200" fill="#232D3F"></rect><path d="M0 82L16 81.8C32 81.7 64 81.3 96 80.5C128 79.7 160 78.3 192 78.3C224 78.3 256 79.7 288 80.7C320 81.7 352 82.3 384 86.3C416 90.3 448 97.7 480 100.7C512 103.7 544 102.3 576 98.2C608 94 640 87 672 88.7C704 90.3 736 100.7 768 107.7C800 114.7 832 118.3 864 114.7C896 111 928 100 944 94.5L960 89L960 201L944 201C928 201 896 201 864 201C832 201 800 201 768 201C736 201 704 201 672 201C640 201 608 201 576 201C544 201 512 201 480 201C448 201 416 201 384 201C352 201 320 201 288 201C256 201 224 201 192 201C160 201 128 201 96 201C64 201 32 201 16 201L0 201Z" fill="#005b41"></path><path d="M0 119L16 116.2C32 113.3 64 107.7 96 108.8C128 110 160 118 192 117.2C224 116.3 256 106.7 288 103.5C320 100.3 352 103.7 384 105.5C416 107.3 448 107.7 480 111.5C512 115.3 544 122.7 576 126.8C608 131 640 132 672 131.3C704 130.7 736 128.3 768 122.2C800 116 832 106 864 108.2C896 110.3 928 124.7 944 131.8L960 139L960 201L944 201C928 201 896 201 864 201C832 201 800 201 768 201C736 201 704 201 672 201C640 201 608 201 576 201C544 201 512 201 480 201C448 201 416 201 384 201C352 201 320 201 288 201C256 201 224 201 192 201C160 201 128 201 96 201C64 201 32 201 16 201L0 201Z" fill="#0f4734"></path><path d="M0 134L16 133C32 132 64 130 96 131C128 132 160 136 192 134.5C224 133 256 126 288 123.5C320 121 352 123 384 123.5C416 124 448 123 480 122.3C512 121.7 544 121.3 576 121.8C608 122.3 640 123.7 672 129.7C704 135.7 736 146.3 768 148.8C800 151.3 832 145.7 864 145.2C896 144.7 928 149.3 944 151.7L960 154L960 201L944 201C928 201 896 201 864 201C832 201 800 201 768 201C736 201 704 201 672 201C640 201 608 201 576 201C544 201 512 201 480 201C448 201 416 201 384 201C352 201 320 201 288 201C256 201 224 201 192 201C160 201 128 201 96 201C64 201 32 201 16 201L0 201Z" fill="#143428"></path><path d="M0 159L16 159.2C32 159.3 64 159.7 96 160.8C128 162 160 164 192 166.2C224 168.3 256 170.7 288 166.5C320 162.3 352 151.7 384 146.3C416 141 448 141 480 144.3C512 147.7 544 154.3 576 157.7C608 161 640 161 672 158C704 155 736 149 768 148C800 147 832 151 864 154C896 157 928 159 944 160L960 161L960 201L944 201C928 201 896 201 864 201C832 201 800 201 768 201C736 201 704 201 672 201C640 201 608 201 576 201C544 201 512 201 480 201C448 201 416 201 384 201C352 201 320 201 288 201C256 201 224 201 192 201C160 201 128 201 96 201C64 201 32 201 16 201L0 201Z" fill="#14221c"></path><path d="M0 189L16 184.5C32 180 64 171 96 169.3C128 167.7 160 173.3 192 173.7C224 174 256 169 288 165.7C320 162.3 352 160.7 384 160.7C416 160.7 448 162.3 480 162.8C512 163.3 544 162.7 576 164.3C608 166 640 170 672 174.5C704 179 736 184 768 181.7C800 179.3 832 169.7 864 165.8C896 162 928 164 944 165L960 166L960 201L944 201C928 201 896 201 864 201C832 201 800 201 768 201C736 201 704 201 672 201C640 201 608 201 576 201C544 201 512 201 480 201C448 201 416 201 384 201C352 201 320 201 288 201C256 201 224 201 192 201C160 201 128 201 96 201C64 201 32 201 16 201L0 201Z" fill="#0f0f0f"></path></svg>