<svg id="visual" viewBox="0 0 960 200" width="960" height="200" xmlns="http://www.w3.org/2000/svg" xmlns:xlink="http://www.w3.org/1999/xlink" version="1.1"><rect x="0" y="0" width="960" height="200" fill="#232D3F"></rect><path d="M0 116L16 116.2C32 116.3 64 116.7 96 117.5C128 118.3 160 119.7 192 119.7C224 119.7 256 118.3 288 117.3C320 116.3 352 115.7 384 111.7C416 107.7 448 100.3 480 97.3C512 94.3 544 95.7 576 99.8C608 104 640 111 672 109.3C704 107.7 736 97.3 768 90.3C800 83.3 832 79.7 864 83.3C896 87 928 98 944 103.5L960 109L960 0L944 0C928 0 896 0 864 0C832 0 800 0 768 0C736 0 704 0 672 0C640 0 608 0 576 0C544 0 512 0 480 0C448 0 416 0 384 0C352 0 320 0 288 0C256 0 224 0 192 0C160 0 128 0 96 0C64 0 32 0 16 0L0 0Z" fill="#005b41"></path><path d="M0 79L16 81.8C32 84.7 64 90.3 96 89.2C128 88 160 80 192 80.8C224 81.7 256 91.3 288 94.5C320 97.7 352 94.3 384 92.5C416 90.7 448 90.3 480 86.5C512 82.7 544 75.3 576 71.2C608 67 640 66 672 66.7C704 67.3 736 69.7 768 75.8C800 82 832 92 864 89.8C896 87.7 928 73.3 944 66.2L960 59L960 0L944 0C928 0 896 0 864 0C832 0 800 0 768 0C736 0 704 0 672 0C640 0 608 0 576 0C544 0 512 0 480 0C448 0 416 0 384 0C352 0 320 0 288 0C256 0 224 0 192 0C160 0 128 0 96 0C64 0 32 0 16 0L0 0Z" fill="#0f4734"></path><path d="M0 64L16 65C32 66 64 68 96 67C128 66 160 62 192 63.5C224 65 256 72 288 74.5C320 77 352 75 384 74.5C416 74 448 75 480 75.7C512 76.3 544 76.7 576 76.2C608 75.7 640 74.3 672 68.3C704 62.3 736 51.7 768 49.2C800 46.7 832 52.3 864 52.8C896 53.3 928 48.7 944 46.3L960 44L960 0L944 0C928 0 896 0 864 0C832 0 800 0 768 0C736 0 704 0 672 0C640 0 608 0 576 0C544 0 512 0 480 0C448 0 416 0 384 0C352 0 320 0 288 0C256 0 224 0 192 0C160 0 128 0 96 0C64 0 32 0 16 0L0 0Z" fill="#143428"></path><path d="M0 39L16 38.8C32 38.7 64 38.3 96 37.2C128 36 160 34 192 31.8C224 29.7 256 27.3 288 31.5C320 35.7 352 46.3 384 51.7C416 57 448 57 480 53.7C512 50.3 544 43.7 576 40.3C608 37 640 37 672 40C704 43 736 49 768 50C800 51 832 47 864 44C896 41 928 39 944 38L960 37L960 0L944 0C928 0 896 0 864 0C832 0 800 0 768 0C736 0 704 0 672 0C640 0 608 0 576 0C544 0 512 0 480 0C448 0 416 0 384 0C352 0 320 0 288 0C256 0 224 0 192 0C160 0 128 0 96 0C64 0 32 0 16 0L0 0Z" fill="#14221c"></path><path d="M0 9L16 13.5C32 18 64 27 96 28.7C128 30.3 160 24.7 192 24.3C224 24 256 29 288 32.3C320 35.7 352 37.3 384 37.3C416 37.3 448 35.7 480 35.2C512 34.7 544 35.3 576 33.7C608 32 640 28 672 23.5C704 19 736 14 768 16.3C800 18.7 832 28.3 864 32.2C896 36 928 34 944 33L960 32L960 0L944 0C928 0 896 0 864 0C832 0 800 0 768 0C736 0 704 0 672 0C640 0 608 0 576 0C544 0 512 0 480 0C448 0 416 0 384 0C352 0 320 0 288 0C256 0 224 0 192 0C160 0 128 0 96 0C64 0 32 0 16 0L0 0Z" fill="#0f0f0f"></path></svg>