<svg id="visual" viewBox="0 0 900 200" width="900" height="200" xmlns="http://www.w3.org/2000/svg" xmlns:xlink="http://www.w3.org/1999/xlink" version="1.1"><rect x="0" y="0" width="900" height="200" fill="#232d3f"></rect><path d="M0 84L15 87.3C30 90.7 60 97.3 90 96.3C120 95.3 150 86.7 180 82C210 77.3 240 76.7 270 80.8C300 85 330 94 360 94.3C390 94.7 420 86.3 450 82.8C480 79.3 510 80.7 540 82.5C570 84.3 600 86.7 630 88.7C660 90.7 690 92.3 720 92.8C750 93.3 780 92.7 810 95.8C840 99 870 106 885 109.5L900 113L900 0L885 0C870 0 840 0 810 0C780 0 750 0 720 0C690 0 660 0 630 0C600 0 570 0 540 0C510 0 480 0 450 0C420 0 390 0 360 0C330 0 300 0 270 0C240 0 210 0 180 0C150 0 120 0 90 0C60 0 30 0 15 0L0 0Z" fill="#f7770f"></path><path d="M0 79L15 78.2C30 77.3 60 75.7 90 78.2C120 80.7 150 87.3 180 88.7C210 90 240 86 270 85.5C300 85 330 88 360 85.8C390 83.7 420 76.3 450 75.5C480 74.7 510 80.3 540 83.3C570 86.3 600 86.7 630 82C660 77.3 690 67.7 720 68C750 68.3 780 78.7 810 83.3C840 88 870 87 885 86.5L900 86L900 0L885 0C870 0 840 0 810 0C780 0 750 0 720 0C690 0 660 0 630 0C600 0 570 0 540 0C510 0 480 0 450 0C420 0 390 0 360 0C330 0 300 0 270 0C240 0 210 0 180 0C150 0 120 0 90 0C60 0 30 0 15 0L0 0Z" fill="#b85b17"></path><path d="M0 72L15 68.7C30 65.3 60 58.7 90 54.7C120 50.7 150 49.3 180 48C210 46.7 240 45.3 270 46.7C300 48 330 52 360 54.7C390 57.3 420 58.7 450 61.8C480 65 510 70 540 67C570 64 600 53 630 52C660 51 690 60 720 61.3C750 62.7 780 56.3 810 56.8C840 57.3 870 64.7 885 68.3L900 72L900 0L885 0C870 0 840 0 810 0C780 0 750 0 720 0C690 0 660 0 630 0C600 0 570 0 540 0C510 0 480 0 450 0C420 0 390 0 360 0C330 0 300 0 270 0C240 0 210 0 180 0C150 0 120 0 90 0C60 0 30 0 15 0L0 0Z" fill="#7c4118"></path><path d="M0 43L15 40.8C30 38.7 60 34.3 90 32.7C120 31 150 32 180 34.3C210 36.7 240 40.3 270 43.3C300 46.3 330 48.7 360 47.7C390 46.7 420 42.3 450 42.2C480 42 510 46 540 44C570 42 600 34 630 30.8C660 27.7 690 29.3 720 33.3C750 37.3 780 43.7 810 45.5C840 47.3 870 44.7 885 43.3L900 42L900 0L885 0C870 0 840 0 810 0C780 0 750 0 720 0C690 0 660 0 630 0C600 0 570 0 540 0C510 0 480 0 450 0C420 0 390 0 360 0C330 0 300 0 270 0C240 0 210 0 180 0C150 0 120 0 90 0C60 0 30 0 15 0L0 0Z" fill="#442816"></path><path d="M0 11L15 11.5C30 12 60 13 90 15.3C120 17.7 150 21.3 180 23C210 24.7 240 24.3 270 25.7C300 27 330 30 360 29.2C390 28.3 420 23.7 450 22.2C480 20.7 510 22.3 540 21.8C570 21.3 600 18.7 630 19.8C660 21 690 26 720 25.7C750 25.3 780 19.7 810 17.2C840 14.7 870 15.3 885 15.7L900 16L900 0L885 0C870 0 840 0 810 0C780 0 750 0 720 0C690 0 660 0 630 0C600 0 570 0 540 0C510 0 480 0 450 0C420 0 390 0 360 0C330 0 300 0 270 0C240 0 210 0 180 0C150 0 120 0 90 0C60 0 30 0 15 0L0 0Z" fill="#0f0f0f"></path></svg>