<svg id="visual" viewBox="0 0 900 200" width="900" height="200" xmlns="http://www.w3.org/2000/svg" xmlns:xlink="http://www.w3.org/1999/xlink" version="1.1"><rect x="0" y="0" width="900" height="200" fill="#232d3f"></rect><path d="M0 92L18.8 92.2C37.7 92.3 75.3 92.7 112.8 98.2C150.3 103.7 187.7 114.3 225.2 117.7C262.7 121 300.3 117 337.8 112.8C375.3 108.7 412.7 104.3 450.2 107C487.7 109.7 525.3 119.3 562.8 120.8C600.3 122.3 637.7 115.7 675.2 112.3C712.7 109 750.3 109 787.8 109.2C825.3 109.3 862.7 109.7 881.3 109.8L900 110L900 201L881.3 201C862.7 201 825.3 201 787.8 201C750.3 201 712.7 201 675.2 201C637.7 201 600.3 201 562.8 201C525.3 201 487.7 201 450.2 201C412.7 201 375.3 201 337.8 201C300.3 201 262.7 201 225.2 201C187.7 201 150.3 201 112.8 201C75.3 201 37.7 201 18.8 201L0 201Z" fill="#fcaf3c"></path><path d="M0 129L18.8 129.2C37.7 129.3 75.3 129.7 112.8 128.7C150.3 127.7 187.7 125.3 225.2 122.2C262.7 119 300.3 115 337.8 116C375.3 117 412.7 123 450.2 128.5C487.7 134 525.3 139 562.8 139C600.3 139 637.7 134 675.2 131.2C712.7 128.3 750.3 127.7 787.8 125.3C825.3 123 862.7 119 881.3 117L900 115L900 201L881.3 201C862.7 201 825.3 201 787.8 201C750.3 201 712.7 201 675.2 201C637.7 201 600.3 201 562.8 201C525.3 201 487.7 201 450.2 201C412.7 201 375.3 201 337.8 201C300.3 201 262.7 201 225.2 201C187.7 201 150.3 201 112.8 201C75.3 201 37.7 201 18.8 201L0 201Z" fill="#fe8e1f"></path><path d="M0 161L18.8 161C37.7 161 75.3 161 112.8 156.7C150.3 152.3 187.7 143.7 225.2 144.2C262.7 144.7 300.3 154.3 337.8 157.8C375.3 161.3 412.7 158.7 450.2 159.2C487.7 159.7 525.3 163.3 562.8 163.7C600.3 164 637.7 161 675.2 160C712.7 159 750.3 160 787.8 160.5C825.3 161 862.7 161 881.3 161L900 161L900 201L881.3 201C862.7 201 825.3 201 787.8 201C750.3 201 712.7 201 675.2 201C637.7 201 600.3 201 562.8 201C525.3 201 487.7 201 450.2 201C412.7 201 375.3 201 337.8 201C300.3 201 262.7 201 225.2 201C187.7 201 150.3 201 112.8 201C75.3 201 37.7 201 18.8 201L0 201Z" fill="#ff6610"></path><path d="M0 173L18.8 170.8C37.7 168.7 75.3 164.3 112.8 165.7C150.3 167 187.7 174 225.2 178C262.7 182 300.3 183 337.8 180.3C375.3 177.7 412.7 171.3 450.2 168.2C487.7 165 525.3 165 562.8 165.2C600.3 165.3 637.7 165.7 675.2 165C712.7 164.3 750.3 162.7 787.8 162.5C825.3 162.3 862.7 163.7 881.3 164.3L900 165L900 201L881.3 201C862.7 201 825.3 201 787.8 201C750.3 201 712.7 201 675.2 201C637.7 201 600.3 201 562.8 201C525.3 201 487.7 201 450.2 201C412.7 201 375.3 201 337.8 201C300.3 201 262.7 201 225.2 201C187.7 201 150.3 201 112.8 201C75.3 201 37.7 201 18.8 201L0 201Z" fill="#ff2a17"></path></svg>