<svg id="visual" viewBox="0 0 900 200" width="900" height="200" xmlns="http://www.w3.org/2000/svg" xmlns:xlink="http://www.w3.org/1999/xlink" version="1.1"><rect x="0" y="0" width="900" height="200" fill="#232d3f"></rect><path d="M0 106L18.8 105.8C37.7 105.7 75.3 105.3 112.8 99.8C150.3 94.3 187.7 83.7 225.2 80.3C262.7 77 300.3 81 337.8 85.2C375.3 89.3 412.7 93.7 450.2 91C487.7 88.3 525.3 78.7 562.8 77.2C600.3 75.7 637.7 82.3 675.2 85.7C712.7 89 750.3 89 787.8 88.8C825.3 88.7 862.7 88.3 881.3 88.2L900 88L900 0L881.3 0C862.7 0 825.3 0 787.8 0C750.3 0 712.7 0 675.2 0C637.7 0 600.3 0 562.8 0C525.3 0 487.7 0 450.2 0C412.7 0 375.3 0 337.8 0C300.3 0 262.7 0 225.2 0C187.7 0 150.3 0 112.8 0C75.3 0 37.7 0 18.8 0L0 0Z" fill="#ff2a17"></path><path d="M0 69L18.8 68.8C37.7 68.7 75.3 68.3 112.8 69.3C150.3 70.3 187.7 72.7 225.2 75.8C262.7 79 300.3 83 337.8 82C375.3 81 412.7 75 450.2 69.5C487.7 64 525.3 59 562.8 59C600.3 59 637.7 64 675.2 66.8C712.7 69.7 750.3 70.3 787.8 72.7C825.3 75 862.7 79 881.3 81L900 83L900 0L881.3 0C862.7 0 825.3 0 787.8 0C750.3 0 712.7 0 675.2 0C637.7 0 600.3 0 562.8 0C525.3 0 487.7 0 450.2 0C412.7 0 375.3 0 337.8 0C300.3 0 262.7 0 225.2 0C187.7 0 150.3 0 112.8 0C75.3 0 37.7 0 18.8 0L0 0Z" fill="#fc4c10"></path><path d="M0 37L18.8 37C37.7 37 75.3 37 112.8 41.3C150.3 45.7 187.7 54.3 225.2 53.8C262.7 53.3 300.3 43.7 337.8 40.2C375.3 36.7 412.7 39.3 450.2 38.8C487.7 38.3 525.3 34.7 562.8 34.3C600.3 34 637.7 37 675.2 38C712.7 39 750.3 38 787.8 37.5C825.3 37 862.7 37 881.3 37L900 37L900 0L881.3 0C862.7 0 825.3 0 787.8 0C750.3 0 712.7 0 675.2 0C637.7 0 600.3 0 562.8 0C525.3 0 487.7 0 450.2 0C412.7 0 375.3 0 337.8 0C300.3 0 262.7 0 225.2 0C187.7 0 150.3 0 112.8 0C75.3 0 37.7 0 18.8 0L0 0Z" fill="#fa630c"></path><path d="M0 25L18.8 27.2C37.7 29.3 75.3 33.7 112.8 32.3C150.3 31 187.7 24 225.2 20C262.7 16 300.3 15 337.8 17.7C375.3 20.3 412.7 26.7 450.2 29.8C487.7 33 525.3 33 562.8 32.8C600.3 32.7 637.7 32.3 675.2 33C712.7 33.7 750.3 35.3 787.8 35.5C825.3 35.7 862.7 34.3 881.3 33.7L900 33L900 0L881.3 0C862.7 0 825.3 0 787.8 0C750.3 0 712.7 0 675.2 0C637.7 0 600.3 0 562.8 0C525.3 0 487.7 0 450.2 0C412.7 0 375.3 0 337.8 0C300.3 0 262.7 0 225.2 0C187.7 0 150.3 0 112.8 0C75.3 0 37.7 0 18.8 0L0 0Z" fill="#f7770f"></path></svg>