<svg id="visual" viewBox="0 0 900 200" width="900" height="200" xmlns="http://www.w3.org/2000/svg" xmlns:xlink="http://www.w3.org/1999/xlink" version="1.1"><rect x="0" y="0" width="900" height="200" fill="#232d3f"></rect><path d="M0 110L18.8 112C37.7 114 75.3 118 112.8 119.8C150.3 121.7 187.7 121.3 225.2 116C262.7 110.7 300.3 100.3 337.8 96.5C375.3 92.7 412.7 95.3 450.2 102C487.7 108.7 525.3 119.3 562.8 119.7C600.3 120 637.7 110 675.2 109.2C712.7 108.3 750.3 116.7 787.8 118.7C825.3 120.7 862.7 116.3 881.3 114.2L900 112L900 201L881.3 201C862.7 201 825.3 201 787.8 201C750.3 201 712.7 201 675.2 201C637.7 201 600.3 201 562.8 201C525.3 201 487.7 201 450.2 201C412.7 201 375.3 201 337.8 201C300.3 201 262.7 201 225.2 201C187.7 201 150.3 201 112.8 201C75.3 201 37.7 201 18.8 201L0 201Z" fill="#fcaf3c"></path><path d="M0 130L18.8 131.2C37.7 132.3 75.3 134.7 112.8 137.2C150.3 139.7 187.7 142.3 225.2 141.8C262.7 141.3 300.3 137.7 337.8 132.8C375.3 128 412.7 122 450.2 120.8C487.7 119.7 525.3 123.3 562.8 123.8C600.3 124.3 637.7 121.7 675.2 125.5C712.7 129.3 750.3 139.7 787.8 137.8C825.3 136 862.7 122 881.3 115L900 108L900 201L881.3 201C862.7 201 825.3 201 787.8 201C750.3 201 712.7 201 675.2 201C637.7 201 600.3 201 562.8 201C525.3 201 487.7 201 450.2 201C412.7 201 375.3 201 337.8 201C300.3 201 262.7 201 225.2 201C187.7 201 150.3 201 112.8 201C75.3 201 37.7 201 18.8 201L0 201Z" fill="#a6742f"></path><path d="M0 147L18.8 148.7C37.7 150.3 75.3 153.7 112.8 155.7C150.3 157.7 187.7 158.3 225.2 159.8C262.7 161.3 300.3 163.7 337.8 161.7C375.3 159.7 412.7 153.3 450.2 153.5C487.7 153.7 525.3 160.3 562.8 163.7C600.3 167 637.7 167 675.2 162.3C712.7 157.7 750.3 148.3 787.8 142.7C825.3 137 862.7 135 881.3 134L900 133L900 201L881.3 201C862.7 201 825.3 201 787.8 201C750.3 201 712.7 201 675.2 201C637.7 201 600.3 201 562.8 201C525.3 201 487.7 201 450.2 201C412.7 201 375.3 201 337.8 201C300.3 201 262.7 201 225.2 201C187.7 201 150.3 201 112.8 201C75.3 201 37.7 201 18.8 201L0 201Z" fill="#563f21"></path><path d="M0 160L18.8 161.5C37.7 163 75.3 166 112.8 168C150.3 170 187.7 171 225.2 172.8C262.7 174.7 300.3 177.3 337.8 177.2C375.3 177 412.7 174 450.2 171C487.7 168 525.3 165 562.8 164.5C600.3 164 637.7 166 675.2 166C712.7 166 750.3 164 787.8 164.2C825.3 164.3 862.7 166.7 881.3 167.8L900 169L900 201L881.3 201C862.7 201 825.3 201 787.8 201C750.3 201 712.7 201 675.2 201C637.7 201 600.3 201 562.8 201C525.3 201 487.7 201 450.2 201C412.7 201 375.3 201 337.8 201C300.3 201 262.7 201 225.2 201C187.7 201 150.3 201 112.8 201C75.3 201 37.7 201 18.8 201L0 201Z" fill="#0f0f0f"></path></svg>