<svg id="visual" viewBox="0 0 900 200" width="900" height="200" xmlns="http://www.w3.org/2000/svg" xmlns:xlink="http://www.w3.org/1999/xlink" version="1.1"><rect x="0" y="0" width="900" height="200" fill="#232d3f"></rect><path d="M0 88L18.8 88C37.7 88 75.3 88 112.8 91.5C150.3 95 187.7 102 225.2 98.5C262.7 95 300.3 81 337.8 76.7C375.3 72.3 412.7 77.7 450.2 83.2C487.7 88.7 525.3 94.3 562.8 99.2C600.3 104 637.7 108 675.2 103.8C712.7 99.7 750.3 87.3 787.8 86.8C825.3 86.3 862.7 97.7 881.3 103.3L900 109L900 0L881.3 0C862.7 0 825.3 0 787.8 0C750.3 0 712.7 0 675.2 0C637.7 0 600.3 0 562.8 0C525.3 0 487.7 0 450.2 0C412.7 0 375.3 0 337.8 0C300.3 0 262.7 0 225.2 0C187.7 0 150.3 0 112.8 0C75.3 0 37.7 0 18.8 0L0 0Z" fill="#ff2a17"></path><path d="M0 62L18.8 66C37.7 70 75.3 78 112.8 77.7C150.3 77.3 187.7 68.7 225.2 67.8C262.7 67 300.3 74 337.8 78.5C375.3 83 412.7 85 450.2 82.5C487.7 80 525.3 73 562.8 70.7C600.3 68.3 637.7 70.7 675.2 69.2C712.7 67.7 750.3 62.3 787.8 65C825.3 67.7 862.7 78.3 881.3 83.7L900 89L900 0L881.3 0C862.7 0 825.3 0 787.8 0C750.3 0 712.7 0 675.2 0C637.7 0 600.3 0 562.8 0C525.3 0 487.7 0 450.2 0C412.7 0 375.3 0 337.8 0C300.3 0 262.7 0 225.2 0C187.7 0 150.3 0 112.8 0C75.3 0 37.7 0 18.8 0L0 0Z" fill="#a92b18"></path><path d="M0 40L18.8 41.2C37.7 42.3 75.3 44.7 112.8 46.3C150.3 48 187.7 49 225.2 49.3C262.7 49.7 300.3 49.3 337.8 51.8C375.3 54.3 412.7 59.7 450.2 60.7C487.7 61.7 525.3 58.3 562.8 56C600.3 53.7 637.7 52.3 675.2 51.3C712.7 50.3 750.3 49.7 787.8 47.5C825.3 45.3 862.7 41.7 881.3 39.8L900 38L900 0L881.3 0C862.7 0 825.3 0 787.8 0C750.3 0 712.7 0 675.2 0C637.7 0 600.3 0 562.8 0C525.3 0 487.7 0 450.2 0C412.7 0 375.3 0 337.8 0C300.3 0 262.7 0 225.2 0C187.7 0 150.3 0 112.8 0C75.3 0 37.7 0 18.8 0L0 0Z" fill="#592116"></path><path d="M0 22L18.8 23.7C37.7 25.3 75.3 28.7 112.8 29.3C150.3 30 187.7 28 225.2 29C262.7 30 300.3 34 337.8 35.5C375.3 37 412.7 36 450.2 32.7C487.7 29.3 525.3 23.7 562.8 20.2C600.3 16.7 637.7 15.3 675.2 16C712.7 16.7 750.3 19.3 787.8 20.2C825.3 21 862.7 20 881.3 19.5L900 19L900 0L881.3 0C862.7 0 825.3 0 787.8 0C750.3 0 712.7 0 675.2 0C637.7 0 600.3 0 562.8 0C525.3 0 487.7 0 450.2 0C412.7 0 375.3 0 337.8 0C300.3 0 262.7 0 225.2 0C187.7 0 150.3 0 112.8 0C75.3 0 37.7 0 18.8 0L0 0Z" fill="#0f0f0f"></path></svg>