<svg id="visual" viewBox="0 0 900 200" width="900" height="200" xmlns="http://www.w3.org/2000/svg" xmlns:xlink="http://www.w3.org/1999/xlink" version="1.1"><rect x="0" y="0" width="900" height="200" fill="#232d3f"></rect><path d="M0 105L15 103.8C30 102.7 60 100.3 90 98.2C120 96 150 94 180 92C210 90 240 88 270 92.5C300 97 330 108 360 114.8C390 121.7 420 124.3 450 123C480 121.7 510 116.3 540 111.7C570 107 600 103 630 104C660 105 690 111 720 109.5C750 108 780 99 810 95C840 91 870 92 885 92.5L900 93L900 201L885 201C870 201 840 201 810 201C780 201 750 201 720 201C690 201 660 201 630 201C600 201 570 201 540 201C510 201 480 201 450 201C420 201 390 201 360 201C330 201 300 201 270 201C240 201 210 201 180 201C150 201 120 201 90 201C60 201 30 201 15 201L0 201Z" fill="#f7770f"></path><path d="M0 113L15 118C30 123 60 133 90 132.7C120 132.3 150 121.7 180 118.8C210 116 240 121 270 122C300 123 330 120 360 117C390 114 420 111 450 114.2C480 117.3 510 126.7 540 126.2C570 125.7 600 115.3 630 115.5C660 115.7 690 126.3 720 126.7C750 127 780 117 810 113.5C840 110 870 113 885 114.5L900 116L900 201L885 201C870 201 840 201 810 201C780 201 750 201 720 201C690 201 660 201 630 201C600 201 570 201 540 201C510 201 480 201 450 201C420 201 390 201 360 201C330 201 300 201 270 201C240 201 210 201 180 201C150 201 120 201 90 201C60 201 30 201 15 201L0 201Z" fill="#b85b17"></path><path d="M0 158L15 155C30 152 60 146 90 141.3C120 136.7 150 133.3 180 133.7C210 134 240 138 270 139.7C300 141.3 330 140.7 360 139.7C390 138.7 420 137.3 450 139.2C480 141 510 146 540 144.5C570 143 600 135 630 131.3C660 127.7 690 128.3 720 131.3C750 134.3 780 139.7 810 144.3C840 149 870 153 885 155L900 157L900 201L885 201C870 201 840 201 810 201C780 201 750 201 720 201C690 201 660 201 630 201C600 201 570 201 540 201C510 201 480 201 450 201C420 201 390 201 360 201C330 201 300 201 270 201C240 201 210 201 180 201C150 201 120 201 90 201C60 201 30 201 15 201L0 201Z" fill="#7c4118"></path><path d="M0 153L15 152.5C30 152 60 151 90 153.3C120 155.7 150 161.3 180 164.5C210 167.7 240 168.3 270 166.7C300 165 330 161 360 159.7C390 158.3 420 159.7 450 161C480 162.3 510 163.7 540 164.2C570 164.7 600 164.3 630 163.8C660 163.3 690 162.7 720 159.3C750 156 780 150 810 147.8C840 145.7 870 147.3 885 148.2L900 149L900 201L885 201C870 201 840 201 810 201C780 201 750 201 720 201C690 201 660 201 630 201C600 201 570 201 540 201C510 201 480 201 450 201C420 201 390 201 360 201C330 201 300 201 270 201C240 201 210 201 180 201C150 201 120 201 90 201C60 201 30 201 15 201L0 201Z" fill="#442816"></path><path d="M0 165L15 168.7C30 172.3 60 179.7 90 182.3C120 185 150 183 180 180.3C210 177.7 240 174.3 270 174.7C300 175 330 179 360 179.8C390 180.7 420 178.3 450 175.5C480 172.7 510 169.3 540 167.8C570 166.3 600 166.7 630 169.8C660 173 690 179 720 180.5C750 182 780 179 810 176.3C840 173.7 870 171.3 885 170.2L900 169L900 201L885 201C870 201 840 201 810 201C780 201 750 201 720 201C690 201 660 201 630 201C600 201 570 201 540 201C510 201 480 201 450 201C420 201 390 201 360 201C330 201 300 201 270 201C240 201 210 201 180 201C150 201 120 201 90 201C60 201 30 201 15 201L0 201Z" fill="#0f0f0f"></path></svg>